<mxfile host="app.diagrams.net" agent="Mozilla/5.0 (Windows NT 10.0; Win64; x64) AppleWebKit/537.36 (KHTML, like Gecko) Chrome/130.0.0.0 Safari/537.36" version="24.8.6">
  <diagram name="Trang-1" id="v6xdfToYWBkkXOWFKyCw">
    <mxGraphModel dx="1621" dy="1209" grid="0" gridSize="10" guides="1" tooltips="1" connect="1" arrows="1" fold="1" page="0" pageScale="1" pageWidth="827" pageHeight="1169" math="0" shadow="0">
      <root>
        <mxCell id="0" />
        <mxCell id="1" parent="0" />
        <mxCell id="FSBIqKMhziDPXwm6GrYP-2" value="&lt;h2&gt;&lt;b&gt;Start&lt;/b&gt;&lt;/h2&gt;" style="ellipse;whiteSpace=wrap;html=1;" vertex="1" parent="1">
          <mxGeometry x="-153" y="-366" width="120" height="80" as="geometry" />
        </mxCell>
        <mxCell id="FSBIqKMhziDPXwm6GrYP-84" value="" style="endArrow=classic;html=1;rounded=0;fontSize=12;startSize=8;endSize=8;curved=1;exitX=0.5;exitY=1;exitDx=0;exitDy=0;entryX=0.56;entryY=0.05;entryDx=0;entryDy=0;entryPerimeter=0;" edge="1" parent="1" source="FSBIqKMhziDPXwm6GrYP-2" target="FSBIqKMhziDPXwm6GrYP-85">
          <mxGeometry width="50" height="50" relative="1" as="geometry">
            <mxPoint x="117" y="125" as="sourcePoint" />
            <mxPoint x="113" y="-42" as="targetPoint" />
          </mxGeometry>
        </mxCell>
        <mxCell id="FSBIqKMhziDPXwm6GrYP-85" value="&lt;h3&gt;&lt;b&gt;nhập giá trị A và B&lt;/b&gt;&lt;/h3&gt;" style="shape=parallelogram;perimeter=parallelogramPerimeter;whiteSpace=wrap;html=1;fixedSize=1;" vertex="1" parent="1">
          <mxGeometry x="-182" y="-197" width="159" height="61" as="geometry" />
        </mxCell>
        <mxCell id="FSBIqKMhziDPXwm6GrYP-86" value="" style="endArrow=classic;html=1;rounded=0;fontSize=12;startSize=8;endSize=8;curved=1;entryX=0.5;entryY=0;entryDx=0;entryDy=0;exitX=0.568;exitY=0.939;exitDx=0;exitDy=0;exitPerimeter=0;" edge="1" parent="1" target="FSBIqKMhziDPXwm6GrYP-89">
          <mxGeometry width="50" height="50" relative="1" as="geometry">
            <mxPoint x="-100.5980000000001" y="-136.001" as="sourcePoint" />
            <mxPoint x="-104.41" y="-35.28" as="targetPoint" />
          </mxGeometry>
        </mxCell>
        <mxCell id="FSBIqKMhziDPXwm6GrYP-89" value="&lt;h1&gt;&lt;b&gt;A&amp;lt;B&lt;/b&gt;&lt;/h1&gt;" style="rhombus;whiteSpace=wrap;html=1;" vertex="1" parent="1">
          <mxGeometry x="-169" y="-39" width="133" height="106" as="geometry" />
        </mxCell>
        <mxCell id="FSBIqKMhziDPXwm6GrYP-91" value="" style="endArrow=classic;html=1;rounded=0;fontSize=12;startSize=8;endSize=8;curved=1;exitX=1;exitY=0.5;exitDx=0;exitDy=0;entryX=0;entryY=0.5;entryDx=0;entryDy=0;" edge="1" parent="1" source="FSBIqKMhziDPXwm6GrYP-89" target="FSBIqKMhziDPXwm6GrYP-96">
          <mxGeometry width="50" height="50" relative="1" as="geometry">
            <mxPoint x="117" y="50" as="sourcePoint" />
            <mxPoint x="54" y="14" as="targetPoint" />
          </mxGeometry>
        </mxCell>
        <mxCell id="FSBIqKMhziDPXwm6GrYP-92" value="&lt;h2&gt;&lt;b&gt;END&lt;/b&gt;&lt;/h2&gt;" style="ellipse;whiteSpace=wrap;html=1;" vertex="1" parent="1">
          <mxGeometry x="51" y="118" width="120" height="80" as="geometry" />
        </mxCell>
        <mxCell id="FSBIqKMhziDPXwm6GrYP-93" value="" style="endArrow=classic;html=1;rounded=0;fontSize=12;startSize=8;endSize=8;curved=1;exitX=0.5;exitY=1;exitDx=0;exitDy=0;entryX=0.438;entryY=0.033;entryDx=0;entryDy=0;entryPerimeter=0;" edge="1" parent="1" source="FSBIqKMhziDPXwm6GrYP-89" target="FSBIqKMhziDPXwm6GrYP-98">
          <mxGeometry width="50" height="50" relative="1" as="geometry">
            <mxPoint x="190" y="157" as="sourcePoint" />
            <mxPoint x="-100" y="136" as="targetPoint" />
          </mxGeometry>
        </mxCell>
        <mxCell id="FSBIqKMhziDPXwm6GrYP-94" value="&lt;b&gt;TRUE&lt;/b&gt;" style="text;html=1;align=center;verticalAlign=middle;resizable=0;points=[];autosize=1;strokeColor=none;fillColor=none;fontSize=16;" vertex="1" parent="1">
          <mxGeometry x="-27" y="-29" width="62" height="31" as="geometry" />
        </mxCell>
        <mxCell id="FSBIqKMhziDPXwm6GrYP-95" value="&lt;b&gt;FALSE&lt;/b&gt;" style="text;html=1;align=center;verticalAlign=middle;resizable=0;points=[];autosize=1;strokeColor=none;fillColor=none;fontSize=16;" vertex="1" parent="1">
          <mxGeometry x="-179" y="78" width="70" height="31" as="geometry" />
        </mxCell>
        <mxCell id="FSBIqKMhziDPXwm6GrYP-96" value="&lt;b&gt;A nhỏ hơn B&lt;/b&gt;" style="rounded=0;whiteSpace=wrap;html=1;" vertex="1" parent="1">
          <mxGeometry x="51" y="-16" width="120" height="60" as="geometry" />
        </mxCell>
        <mxCell id="FSBIqKMhziDPXwm6GrYP-98" value="&lt;b&gt;A lớn hơn B&lt;/b&gt;" style="rounded=0;whiteSpace=wrap;html=1;" vertex="1" parent="1">
          <mxGeometry x="-155.5" y="128" width="120" height="60" as="geometry" />
        </mxCell>
        <mxCell id="FSBIqKMhziDPXwm6GrYP-100" value="" style="endArrow=classic;html=1;rounded=0;fontSize=12;startSize=8;endSize=8;curved=1;exitX=0.5;exitY=1;exitDx=0;exitDy=0;entryX=0.5;entryY=0;entryDx=0;entryDy=0;" edge="1" parent="1" source="FSBIqKMhziDPXwm6GrYP-96" target="FSBIqKMhziDPXwm6GrYP-92">
          <mxGeometry width="50" height="50" relative="1" as="geometry">
            <mxPoint x="113" y="49" as="sourcePoint" />
            <mxPoint x="114" y="126" as="targetPoint" />
          </mxGeometry>
        </mxCell>
        <mxCell id="FSBIqKMhziDPXwm6GrYP-102" value="" style="endArrow=classic;html=1;rounded=0;fontSize=12;startSize=8;endSize=8;curved=1;exitX=1;exitY=0.5;exitDx=0;exitDy=0;entryX=0;entryY=0.5;entryDx=0;entryDy=0;" edge="1" parent="1" source="FSBIqKMhziDPXwm6GrYP-98" target="FSBIqKMhziDPXwm6GrYP-92">
          <mxGeometry width="50" height="50" relative="1" as="geometry">
            <mxPoint x="121" y="54" as="sourcePoint" />
            <mxPoint x="121" y="138" as="targetPoint" />
          </mxGeometry>
        </mxCell>
      </root>
    </mxGraphModel>
  </diagram>
</mxfile>
